<?xml version="1.0" encoding="UTF-8"?>
<svg id="Layer_2" data-name="Layer 2" xmlns="http://www.w3.org/2000/svg" viewBox="0 0 206.41 51.5">
  <defs>
    <style>
      .cls-1 {
        fill: #fec15f;
      }

      .cls-2 {
        fill: #328bcb;
      }

      .cls-3 {
        fill: #ec9559;
      }
    </style>
  </defs>
  <g id="Layer_1-2" data-name="Layer 1">
    <g id="Layer_1-2" data-name="Layer 1-2">
      <rect class="cls-3" x="12.06" y="8.74" width="25.59" height="25.34"/>
      <polygon class="cls-2" points="37.65 7.26 12.06 7.26 21.9 0 47.61 0 37.65 7.26"/>
      <g>
        <path d="M66.21,8.4v22c0,2.9,0,4.3-1.2,6.5-1.7,2.8-4.3,4.3-7.8,4.3-1.7,0-3.3-.4-4.7-1.3-2.1-1.2-3.6-3.3-4.3-5.6l4.3-1c.2,1.2,1,2.2,2,2.9.8.5,1.7.9,2.6.9,1.6,0,3.4-.9,4.1-2.5.5-1.2.5-2,.5-4.3V8.3h4.5v.1Z"/>
        <path d="M75.71,34.7c1.3,1.7,3.3,2.5,5.5,2.5s4.2-.9,5.5-2.5c.3-.4.4-.8.7-1.1l4.3,1.8c-.4.7-.9,1.4-1.3,2-2.2,2.6-5.6,4-9.1,3.9s-6.8-1.3-8.9-4c-2.1-2.6-2.9-5.7-2.8-8.8.1-3.2.8-6.3,2.8-8.8,2.1-2.6,5.4-3.9,8.9-3.9s6.8,1.3,9,3.9c2,2.5,2.8,5.7,2.8,8.8v1.2h-19c.1,1.9.5,3.7,1.6,5ZM75.71,22.4c-.8,1.1-1.3,2.4-1.5,3.8h13.9c-.2-1.4-.7-2.7-1.5-3.8-1.3-1.7-3.3-2.6-5.5-2.5-2.1,0-4.2.8-5.4,2.5Z"/>
        <path d="M102.61,31.1c0,2,0,3.3.5,4.2.5,1,1.6,1.6,2.7,1.7,1.3.1,2.7,0,4-.2v3.8c-1.7.4-4.3.5-5.9.2-2.1-.5-3.8-1.5-4.7-3.3-.9-1.8-1-3.8-1-6.2v-11.3h-5.3v-3.5h5.3v-6.8h4.3v6.7h7.3v3.6h-7.3v11.1h.1Z"/>
        <path d="M135.91,28.6c0,3.2-.7,6.3-2.7,8.9-2,2.5-5.1,3.9-8.4,3.9-2.9,0-5.5-.9-7.3-2.7v12.8h-4.3V16.5h3.9v2.5c2-2,4.8-3.2,7.8-3.2,3.3,0,6.4,1.3,8.4,3.9,1.8,2.4,2.6,5.6,2.6,8.9ZM131.21,28.6c0-2.4-.4-4.7-1.6-6.2-1.3-1.8-3.3-2.6-5.6-2.6-2.1,0-4.1.8-5.3,2.3-1.3,1.6-1.9,4-1.9,6.5s.5,4.9,1.9,6.5c1.3,1.5,3.2,2.3,5.4,2.3s4.2-.9,5.5-2.6c1.2-1.6,1.6-3.9,1.6-6.2Z"/>
        <path d="M138.21,20.9l.7-.9c2.1-2.9,5.3-4.2,9.1-4.2,4.4,0,8.1,1.6,9.9,5.2.7,1.5,1,3,1,4.4v15.2h-3.9v-4.6c-.8,1.6-2.4,3-3.9,3.8-1.9,1-3.9,1.5-6,1.4-2.5-.1-4.9-1.3-6.2-3.1-1-1.5-1.6-2.8-1.6-4.6,0-2.6,1.4-4.9,3.7-6.2,2.6-1.5,5.1-1.7,8.7-2.2l4.7-.7c-.2-1.3-.9-2.5-1.9-3.3-1.3-.9-2.9-1.3-4.6-1.3-2.1,0-3.9.7-5.1,2.2-.2.2-.4.5-.5.8l-4.1-1.9ZM149.11,29c-3.6.6-7.4,1.2-7.4,4.3,0,2,1.7,3.9,4.1,4,3,.1,6.8-1.5,8-4.6.8-1.7.8-3,.8-4.6-1.5.2-3,.5-5.5.9Z"/>
        <path d="M179.11,23.6c-.2-.4-.4-.8-.7-1.2-1.3-1.7-3.3-2.6-5.5-2.5-2.2,0-4.2.8-5.5,2.5s-1.7,3.9-1.7,6.1.4,4.5,1.7,6.1,3.3,2.5,5.5,2.5,4.2-.9,5.5-2.5c.3-.4.4-.7.7-1.1l4.1,1.7c-.4.7-.8,1.4-1.3,2-2.1,2.6-5.5,4-8.9,3.9-3.5.1-6.8-1.3-8.9-3.9-2-2.5-2.8-5.6-2.8-8.8s.8-6.3,2.8-8.8c2.2-2.7,5.5-3.9,8.9-3.9s6.8,1.3,8.9,3.9c.5.7,1,1.4,1.3,2.1l-4.1,1.9Z"/>
        <path d="M190.01,40.7h-4.4V8.4h4.4v17.2h4l6.3-9.2h5l-7.5,11,8.6,13.2h-4.9l-7.5-11.4h-4v11.5h0Z"/>
      </g>
      <polyline class="cls-1" points="10.33 9.47 10.33 34.08 0 34.08"/>
    </g>
  </g>
</svg>