<?xml version="1.0" encoding="UTF-8"?>
<svg id="Layer_2" xmlns="http://www.w3.org/2000/svg" version="1.1" viewBox="0 0 612.7 79.2">
  <!-- Generator: Adobe Illustrator 29.5.1, SVG Export Plug-In . SVG Version: 2.1.0 Build 141)  -->
  <defs>
    <style>
      .st0 {
        fill: #231f20;
      }

      .st1 {
        isolation: isolate;
      }

      .st2 {
        fill: #a0a0a0;
      }

      .st3 {
        fill: #fec15f;
      }

      .st4 {
        fill: #328bcb;
      }

      .st5 {
        fill: #ec9559;
      }
    </style>
  </defs>
  <g id="Layer_1-2">
    <rect class="st5" x="20.9" y="14.3" width="37.8" height="37.3"/>
    <polygon class="st4" points="58.7 12.1 20.9 12.1 35.5 1.4 73.3 1.4 58.7 12.1"/>
    <g class="st1">
      <g class="st1">
        <path class="st0" d="M117.3,2h6.1v41.5c0,3.7-.8,6.9-2.4,9.8-1.6,2.8-3.9,4.9-6.8,6.5-2.9,1.5-6.3,2.3-10.1,2.3s-7.8-.9-10.9-2.7-5.6-4.3-7.3-7.7l4.9-2.9c1.6,2.8,3.5,4.8,5.6,5.9,2.1,1.2,4.8,1.7,8,1.7s7.1-1.1,9.4-3.3c2.4-2.3,3.6-5.5,3.6-9.6V2h-.1Z"/>
      </g>
      <g class="st1">
        <path class="st0" d="M161.8,20.7c3.2,2,5.7,4.8,7.5,8.1,1.7,3.5,2.7,7.1,2.7,11s0,1.1-.1,2.3h-37.1c.3,2.8,1.2,5.2,2.5,7.5,1.5,2.3,3.3,4,5.9,5.2,2.4,1.3,5.2,2,8.4,2s5.6-.7,8.1-2,4.4-2.9,5.6-4.9l4.5,2.7c-1.9,2.9-4.4,5.2-7.6,6.9-3.2,1.6-6.8,2.5-10.9,2.5s-8.2-.9-11.7-2.9c-3.5-1.9-6.1-4.5-8-8-1.9-3.3-2.9-7.2-2.9-11.3s.9-7.8,2.8-11.2,4.5-6,7.8-8,7.2-2.9,11.4-2.9,7.7,1.1,10.9,3.1h.3ZM166.4,37.4c-.5-4.5-2.3-8-4.9-10.6-2.7-2.5-6.3-3.9-10.6-3.9s-5.9.7-8.4,2c-2.5,1.3-4.4,3.2-5.7,5.5-1.3,2.3-2.1,4.7-2.1,7.1h31.8Z"/>
      </g>
      <g class="st1">
        <path class="st0" d="M187.5,54.4c1.1,1.1,2.7,1.6,5.1,1.6s2.3,0,4.5-.4v5.2c-2.4.3-4.3.4-5.7.4-3.7,0-6.5-.9-8.4-2.8-1.9-1.9-2.7-5.2-2.7-10v-24.6h-10v-5.2h10V6.5l5.7-2.1v14.2h10.9v5.2h-10.9v24.3c0,2.9.5,4.9,1.5,6v.3Z"/>
      </g>
      <g class="st1">
        <path class="st0" d="M235.2,20.7c3.3,2,5.9,4.7,7.6,8,1.9,3.3,2.8,7.1,2.8,11.2s-.9,7.7-2.8,11.2c-1.9,3.3-4.4,6-7.6,8-3.3,2-6.9,2.9-10.9,2.9s-6.5-.8-9.4-2.4c-2.9-1.6-5.5-3.7-7.3-6.5v24.7h-5.7V18.8h5.7v7.8c1.9-2.7,4.4-4.8,7.3-6.4,2.9-1.6,6.1-2.4,9.4-2.4s7.7.9,10.9,2.9ZM231.8,54.1c2.5-1.5,4.4-3.5,5.9-5.9,1.5-2.5,2.1-5.3,2.1-8.4s-.7-5.9-2.1-8.4c-1.5-2.5-3.3-4.5-5.9-6s-5.2-2.1-8.2-2.1-5.7.7-8.2,2.1-4.5,3.5-5.9,6c-1.5,2.5-2.1,5.3-2.1,8.4s.7,5.9,2.1,8.4c1.5,2.5,3.5,4.5,5.9,5.9,2.5,1.5,5.2,2.1,8.2,2.1s5.7-.7,8.2-2.1Z"/>
      </g>
      <g class="st1">
        <path class="st0" d="M285.2,18.8h5.7v42.2h-5.7v-7.8c-1.9,2.8-4.4,4.9-7.3,6.5s-6.1,2.4-9.6,2.4-7.7-.9-10.9-2.9c-3.3-2-5.9-4.7-7.6-8s-2.8-7.1-2.8-11.2.9-7.8,2.8-11.2c1.9-3.3,4.4-6,7.6-8,3.3-2,6.9-2.9,10.9-2.9s6.7.8,9.6,2.4c2.9,1.6,5.3,3.7,7.3,6.5,0,0,0-8,0-8ZM277.1,54.3c2.5-1.5,4.4-3.5,5.9-6,1.5-2.5,2.1-5.3,2.1-8.4s-.7-5.9-2.1-8.4c-1.5-2.5-3.3-4.5-5.9-5.9-2.5-1.5-5.2-2.1-8.2-2.1s-5.7.7-8.2,2.1-4.4,3.5-5.9,6c-1.5,2.5-2.1,5.3-2.1,8.4s.7,5.9,2.1,8.4c1.5,2.5,3.3,4.5,5.9,6s5.2,2.3,8.2,2.3,5.7-.7,8.2-2.3h0Z"/>
      </g>
      <g class="st1">
        <path class="st0" d="M333.9,52.8c-2.1,2.9-4.7,5.1-7.7,6.8-3.1,1.6-6.4,2.4-10.1,2.4s-7.7-.9-11-2.9-6.1-4.7-8.1-8.1-2.9-7.1-2.9-11,.9-7.7,2.9-11,4.7-6,8.1-8,7.1-2.9,11-2.9,6.9.8,10,2.4c3.1,1.6,5.7,3.7,7.7,6.5l-4.8,3.1c-1.6-2-3.5-3.6-5.7-4.8-2.3-1.2-4.7-1.7-7.3-1.7s-5.7.7-8.2,2.1-4.5,3.5-6,6-2.1,5.2-2.1,8.2.7,5.7,2.1,8.2,3.5,4.5,6,6,5.2,2.3,8.2,2.3,5.1-.5,7.3-1.7c2.3-1.2,4.1-2.8,5.7-4.8l4.8,3.1h.1Z"/>
      </g>
      <g class="st1">
        <path class="st0" d="M373.1,60.9h-7.3l-15-19-7.7,8.4v10.5h-5.7V1.9h5.7v40.3l21.4-23.4h7.8l-17.6,19,18.4,23.3h0Z"/>
      </g>
    </g>
    <polyline class="st3" points="18.4 15.4 18.4 51.6 3.2 51.6"/>
  </g>
  <g>
    <path class="st2" d="M421,34.2h29.6v3c0,4.5-1.2,8.7-3.7,12.6s-5.9,6.9-10.2,9.2c-4.3,2.3-9.2,3.4-14.6,3.4s-10.4-1.3-15-4-8.2-6.3-10.9-10.9c-2.7-4.6-4-9.6-4-15s1.3-10.4,4-15c2.7-4.6,6.3-8.2,10.9-10.9,4.6-2.7,9.6-4,15-4s10.3,1.3,14.9,4c4.6,2.7,8.2,6.3,10.8,10.7l-3.6,2.4c-2.3-3.9-5.4-7-9.3-9.3-3.9-2.4-8.2-3.5-12.9-3.5s-8.9,1.1-12.9,3.4c-4,2.3-7.1,5.4-9.4,9.3-2.3,3.9-3.4,8.2-3.4,12.9s1.1,8.9,3.4,12.9,5.4,7,9.4,9.3c4,2.3,8.3,3.4,12.9,3.4s8.5-.9,12.1-2.6c3.6-1.7,6.5-4.1,8.6-7.1,2.1-3,3.3-6.4,3.5-10.2h-25.3v-4.1Z"/>
    <path class="st2" d="M493.7,3.3h4.3v38.4c0,4.1-.8,7.7-2.5,10.8-1.7,3.1-4.1,5.5-7.3,7.2-3.2,1.7-6.8,2.6-11,2.6s-7.9-.9-11-2.6c-3.1-1.7-5.5-4.1-7.2-7.2-1.7-3.1-2.5-6.7-2.5-10.8V3.3h4.3v38.4c0,4.9,1.4,8.9,4.3,11.9,2.9,3,6.9,4.5,12.1,4.5s9.4-1.5,12.2-4.4c2.8-3,4.3-6.9,4.3-11.9V3.3Z"/>
    <path class="st2" d="M507.6,61.4V3.3h4.2v58.1h-4.2Z"/>
    <path class="st2" d="M558.2,7.1c4.5,2.5,8.1,6,10.7,10.5,2.6,4.5,3.9,9.4,3.9,14.8s-1.3,10.3-3.9,14.7c-2.6,4.4-6.2,7.9-10.7,10.4-4.5,2.5-9.5,3.8-14.9,3.8h-19.7V3.3h19.7c5.4,0,10.4,1.3,14.9,3.8ZM543.3,57.4c4.6,0,8.9-1.1,12.8-3.3s6.9-5.2,9.2-9c2.2-3.8,3.4-8,3.4-12.7s-1.1-8.9-3.4-12.7-5.3-6.8-9.2-9c-3.9-2.2-8.1-3.3-12.8-3.3h-15.4v50h15.4Z"/>
    <path class="st2" d="M584.2,34.2v23.2h27.6v4.1h-31.9V3.3h31.5v4.1h-27.2v22.8h25.1v4h-25.1Z"/>
  </g>
</svg>