<?xml version="1.0" encoding="UTF-8"?>
<svg id="Layer_2" xmlns="http://www.w3.org/2000/svg" version="1.1" viewBox="0 0 583.5 79.2">
  <!-- Generator: Adobe Illustrator 29.5.1, SVG Export Plug-In . SVG Version: 2.1.0 Build 141)  -->
  <defs>
    <style>
      .st0 {
        fill: #231f20;
      }

      .st1 {
        fill: #c1c1c1;
      }

      .st2 {
        isolation: isolate;
      }

      .st3 {
        fill: #fec15f;
      }

      .st4 {
        fill: #328bcb;
      }

      .st5 {
        fill: #fff;
      }

      .st6 {
        fill: #ec9559;
      }
    </style>
  </defs>
  <rect class="st1" x="392.9" y="10.6" width="188.5" height="59.1"/>
  <g id="Layer_1-2">
    <rect class="st6" x="20.9" y="14.3" width="37.8" height="37.3"/>
    <polygon class="st4" points="58.7 12.1 20.9 12.1 35.5 1.4 73.3 1.4 58.7 12.1"/>
    <g class="st2">
      <g class="st2">
        <path class="st0" d="M117.3,2h6.1v41.5c0,3.7-.8,6.9-2.4,9.8-1.6,2.8-3.9,4.9-6.8,6.5-2.9,1.5-6.3,2.3-10.1,2.3s-7.8-.9-10.9-2.7-5.6-4.3-7.3-7.7l4.9-2.9c1.6,2.8,3.5,4.8,5.6,5.9,2.1,1.2,4.8,1.7,8,1.7s7.1-1.1,9.4-3.3c2.4-2.3,3.6-5.5,3.6-9.6V2h-.1Z"/>
      </g>
      <g class="st2">
        <path class="st0" d="M161.8,20.7c3.2,2,5.7,4.8,7.5,8.1,1.7,3.5,2.7,7.1,2.7,11s0,1.1-.1,2.3h-37.1c.3,2.8,1.2,5.2,2.5,7.5,1.5,2.3,3.3,4,5.9,5.2,2.4,1.3,5.2,2,8.4,2s5.6-.7,8.1-2,4.4-2.9,5.6-4.9l4.5,2.7c-1.9,2.9-4.4,5.2-7.6,6.9-3.2,1.6-6.8,2.5-10.9,2.5s-8.2-.9-11.7-2.9c-3.5-1.9-6.1-4.5-8-8-1.9-3.3-2.9-7.2-2.9-11.3s.9-7.8,2.8-11.2c1.9-3.3,4.5-6,7.8-8s7.2-2.9,11.4-2.9,7.7,1.1,10.9,3.1h.3ZM166.4,37.4c-.5-4.5-2.3-8-4.9-10.6-2.7-2.5-6.3-3.9-10.6-3.9s-5.9.7-8.4,2c-2.5,1.3-4.4,3.2-5.7,5.5-1.3,2.3-2.1,4.7-2.1,7.1h31.8Z"/>
      </g>
      <g class="st2">
        <path class="st0" d="M187.5,54.4c1.1,1.1,2.7,1.6,5.1,1.6s2.3,0,4.5-.4v5.2c-2.4.3-4.3.4-5.7.4-3.7,0-6.5-.9-8.4-2.8-1.9-1.9-2.7-5.2-2.7-10v-24.6h-10v-5.2h10V6.5l5.7-2.1v14.2h10.9v5.2h-10.9v24.3c0,2.9.5,4.9,1.5,6v.3Z"/>
      </g>
      <g class="st2">
        <path class="st0" d="M235.2,20.7c3.3,2,5.9,4.7,7.6,8,1.9,3.3,2.8,7.1,2.8,11.2s-.9,7.7-2.8,11.2c-1.9,3.3-4.4,6-7.6,8-3.3,2-6.9,2.9-10.9,2.9s-6.5-.8-9.4-2.4c-2.9-1.6-5.5-3.7-7.3-6.5v24.7h-5.7V18.8h5.7v7.8c1.9-2.7,4.4-4.8,7.3-6.4,2.9-1.6,6.1-2.4,9.4-2.4s7.7.9,10.9,2.9ZM231.8,54.1c2.5-1.5,4.4-3.5,5.9-5.9,1.5-2.5,2.1-5.3,2.1-8.4s-.7-5.9-2.1-8.4c-1.5-2.5-3.3-4.5-5.9-6s-5.2-2.1-8.2-2.1-5.7.7-8.2,2.1-4.5,3.5-5.9,6c-1.5,2.5-2.1,5.3-2.1,8.4s.7,5.9,2.1,8.4c1.5,2.5,3.5,4.5,5.9,5.9,2.5,1.5,5.2,2.1,8.2,2.1s5.7-.7,8.2-2.1Z"/>
      </g>
      <g class="st2">
        <path class="st0" d="M285.2,18.8h5.7v42.2h-5.7v-7.8c-1.9,2.8-4.4,4.9-7.3,6.5s-6.1,2.4-9.6,2.4-7.7-.9-10.9-2.9c-3.3-2-5.9-4.7-7.6-8s-2.8-7.1-2.8-11.2.9-7.8,2.8-11.2c1.9-3.3,4.4-6,7.6-8,3.3-2,6.9-2.9,10.9-2.9s6.7.8,9.6,2.4c2.9,1.6,5.3,3.7,7.3,6.5,0,0,0-8,0-8ZM277.1,54.3c2.5-1.5,4.4-3.5,5.9-6,1.5-2.5,2.1-5.3,2.1-8.4s-.7-5.9-2.1-8.4c-1.5-2.5-3.3-4.5-5.9-5.9-2.5-1.5-5.2-2.1-8.2-2.1s-5.7.7-8.2,2.1-4.4,3.5-5.9,6c-1.5,2.5-2.1,5.3-2.1,8.4s.7,5.9,2.1,8.4c1.5,2.5,3.3,4.5,5.9,6s5.2,2.3,8.2,2.3,5.7-.7,8.2-2.3h0Z"/>
      </g>
      <g class="st2">
        <path class="st0" d="M333.9,52.8c-2.1,2.9-4.7,5.1-7.7,6.8-3.1,1.6-6.4,2.4-10.1,2.4s-7.7-.9-11-2.9-6.1-4.7-8.1-8.1-2.9-7.1-2.9-11,.9-7.7,2.9-11,4.7-6,8.1-8,7.1-2.9,11-2.9,6.9.8,10,2.4c3.1,1.6,5.7,3.7,7.7,6.5l-4.8,3.1c-1.6-2-3.5-3.6-5.7-4.8-2.3-1.2-4.7-1.7-7.3-1.7s-5.7.7-8.2,2.1-4.5,3.5-6,6-2.1,5.2-2.1,8.2.7,5.7,2.1,8.2,3.5,4.5,6,6,5.2,2.3,8.2,2.3,5.1-.5,7.3-1.7c2.3-1.2,4.1-2.8,5.7-4.8l4.8,3.1h.1Z"/>
      </g>
      <g class="st2">
        <path class="st0" d="M373.1,60.9h-7.3l-15-19-7.7,8.4v10.5h-5.7V1.9h5.7v40.3l21.4-23.4h7.8l-17.6,19,18.4,23.3h0Z"/>
      </g>
    </g>
    <polyline class="st3" points="18.4 15.4 18.4 51.6 3.2 51.6"/>
  </g>
  <g>
    <path class="st5" d="M425.2,41.5h22.7v2.3c0,3.5-1,6.7-2.9,9.6-1.9,2.9-4.5,5.3-7.8,7-3.3,1.8-7,2.6-11.1,2.6s-8-1-11.5-3.1c-3.5-2.1-6.3-4.8-8.3-8.3-2.1-3.5-3.1-7.3-3.1-11.5s1-8,3.1-11.5c2.1-3.5,4.8-6.3,8.3-8.3,3.5-2.1,7.3-3.1,11.5-3.1s7.9,1,11.4,3.1c3.5,2.1,6.3,4.8,8.3,8.2l-2.7,1.8c-1.7-3-4.1-5.3-7.1-7.1-3-1.8-6.3-2.7-9.8-2.7s-6.8.9-9.9,2.6c-3,1.8-5.4,4.1-7.2,7.1-1.8,3-2.6,6.3-2.6,9.8s.9,6.8,2.6,9.8c1.8,3,4.1,5.4,7.2,7.1,3,1.8,6.3,2.6,9.9,2.6s6.5-.7,9.3-2c2.7-1.3,4.9-3.1,6.6-5.4,1.6-2.3,2.5-4.9,2.7-7.8h-19.4v-3.1Z"/>
    <path class="st5" d="M480.8,17.9h3.3v29.4c0,3.1-.6,5.9-1.9,8.3-1.3,2.4-3.1,4.2-5.6,5.5-2.4,1.3-5.2,2-8.4,2s-6-.7-8.4-2c-2.4-1.3-4.2-3.2-5.5-5.5-1.3-2.4-1.9-5.1-1.9-8.3v-29.4h3.3v29.4c0,3.8,1.1,6.8,3.3,9.1,2.2,2.3,5.3,3.4,9.3,3.4s7.2-1.1,9.4-3.4c2.2-2.3,3.3-5.3,3.3-9.1v-29.4Z"/>
    <path class="st5" d="M491.4,62.3V17.9h3.2v44.4h-3.2Z"/>
    <path class="st5" d="M530.2,20.8c3.5,1.9,6.2,4.6,8.2,8,2,3.4,3,7.2,3,11.3s-1,7.9-3,11.3c-2,3.4-4.8,6-8.2,8-3.5,1.9-7.3,2.9-11.4,2.9h-15V17.9h15c4.1,0,8,1,11.4,2.9ZM518.7,59.2c3.6,0,6.8-.8,9.8-2.5s5.3-4,7-6.9c1.7-2.9,2.6-6.1,2.6-9.7s-.9-6.8-2.6-9.7c-1.7-2.9-4.1-5.2-7-6.9-3-1.7-6.2-2.5-9.8-2.5h-11.7v38.2h11.7Z"/>
    <path class="st5" d="M550,41.5v17.7h21.1v3.1h-24.4V17.9h24.1v3.1h-20.8v17.5h19.2v3h-19.2Z"/>
  </g>
</svg>