<?xml version="1.0" encoding="UTF-8"?>
<svg id="Layer_2" xmlns="http://www.w3.org/2000/svg" version="1.1" viewBox="0 0 542.6 79.2">
  <!-- Generator: Adobe Illustrator 29.5.1, SVG Export Plug-In . SVG Version: 2.1.0 Build 141)  -->
  <defs>
    <style>
      .st0 {
        fill: #7c7c7c;
      }

      .st1 {
        fill: #231f20;
      }

      .st2 {
        isolation: isolate;
      }

      .st3 {
        fill: #fec15f;
      }

      .st4 {
        fill: #328bcb;
      }

      .st5 {
        fill: #ec9559;
      }
    </style>
  </defs>
  <g id="Layer_1-2">
    <rect class="st5" x="22.9" y="16.9" width="45.5" height="44.9"/>
    <polygon class="st4" points="68.4 14.2 22.9 14.2 40.5 1.4 86 1.4 68.4 14.2"/>
    <g class="st2">
      <g class="st2">
        <path class="st1" d="M114.3,2h6.1v41.5c0,3.7-.8,6.9-2.4,9.8-1.6,2.8-3.9,4.9-6.8,6.5-2.9,1.5-6.3,2.3-10.1,2.3s-7.8-.9-10.9-2.7-5.6-4.3-7.3-7.7l4.9-2.9c1.6,2.8,3.5,4.8,5.6,5.9,2.1,1.2,4.8,1.7,8,1.7s7.1-1.1,9.4-3.3c2.4-2.3,3.6-5.5,3.6-9.6V2h-.1Z"/>
      </g>
      <g class="st2">
        <path class="st1" d="M158.8,20.7c3.2,2,5.7,4.8,7.5,8.1,1.7,3.5,2.7,7.1,2.7,11s0,1.1-.1,2.3h-37.1c.3,2.8,1.2,5.2,2.5,7.5,1.5,2.3,3.3,4,5.9,5.2,2.4,1.3,5.2,2,8.4,2s5.6-.7,8.1-2,4.4-2.9,5.6-4.9l4.5,2.7c-1.9,2.9-4.4,5.2-7.6,6.9-3.2,1.6-6.8,2.5-10.9,2.5s-8.2-.9-11.7-2.9c-3.5-1.9-6.1-4.5-8-8-1.9-3.3-2.9-7.2-2.9-11.3s.9-7.8,2.8-11.2,4.5-6,7.8-8,7.2-2.9,11.4-2.9,7.7,1.1,10.9,3.1h.3ZM163.4,37.4c-.5-4.5-2.3-8-4.9-10.6-2.7-2.5-6.3-3.9-10.6-3.9s-5.9.7-8.4,2c-2.5,1.3-4.4,3.2-5.7,5.5-1.3,2.3-2.1,4.7-2.1,7.1h31.8Z"/>
      </g>
      <g class="st2">
        <path class="st1" d="M184.5,54.4c1.1,1.1,2.7,1.6,5.1,1.6s2.3,0,4.5-.4v5.2c-2.4.3-4.3.4-5.7.4-3.7,0-6.5-.9-8.4-2.8-1.9-1.9-2.7-5.2-2.7-10v-24.6h-10v-5.2h10V6.5l5.7-2.1v14.2h10.9v5.2h-10.9v24.3c0,2.9.5,4.9,1.5,6v.3Z"/>
      </g>
      <g class="st2">
        <path class="st1" d="M232.2,20.7c3.3,2,5.9,4.7,7.6,8,1.9,3.3,2.8,7.1,2.8,11.2s-.9,7.7-2.8,11.2c-1.9,3.3-4.4,6-7.6,8-3.3,2-6.9,2.9-10.9,2.9s-6.5-.8-9.4-2.4c-2.9-1.6-5.5-3.7-7.3-6.5v24.7h-5.7V18.8h5.7v7.8c1.9-2.7,4.4-4.8,7.3-6.4,2.9-1.6,6.1-2.4,9.4-2.4s7.7.9,10.9,2.9ZM228.8,54.1c2.5-1.5,4.4-3.5,5.9-5.9,1.5-2.5,2.1-5.3,2.1-8.4s-.7-5.9-2.1-8.4c-1.5-2.5-3.3-4.5-5.9-6s-5.2-2.1-8.2-2.1-5.7.7-8.2,2.1-4.5,3.5-5.9,6c-1.5,2.5-2.1,5.3-2.1,8.4s.7,5.9,2.1,8.4c1.5,2.5,3.5,4.5,5.9,5.9,2.5,1.5,5.2,2.1,8.2,2.1s5.7-.7,8.2-2.1Z"/>
      </g>
      <g class="st2">
        <path class="st1" d="M282.2,18.8h5.7v42.2h-5.7v-7.8c-1.9,2.8-4.4,4.9-7.3,6.5s-6.1,2.4-9.6,2.4-7.7-.9-10.9-2.9c-3.3-2-5.9-4.7-7.6-8s-2.8-7.1-2.8-11.2.9-7.8,2.8-11.2c1.9-3.3,4.4-6,7.6-8,3.3-2,6.9-2.9,10.9-2.9s6.7.8,9.6,2.4c2.9,1.6,5.3,3.7,7.3,6.5,0,0,0-8,0-8ZM274.1,54.3c2.5-1.5,4.4-3.5,5.9-6,1.5-2.5,2.1-5.3,2.1-8.4s-.7-5.9-2.1-8.4c-1.5-2.5-3.3-4.5-5.9-5.9-2.5-1.5-5.2-2.1-8.2-2.1s-5.7.7-8.2,2.1-4.4,3.5-5.9,6c-1.5,2.5-2.1,5.3-2.1,8.4s.7,5.9,2.1,8.4c1.5,2.5,3.3,4.5,5.9,6s5.2,2.3,8.2,2.3,5.7-.7,8.2-2.3h0Z"/>
      </g>
      <g class="st2">
        <path class="st1" d="M330.9,52.8c-2.1,2.9-4.7,5.1-7.7,6.8-3.1,1.6-6.4,2.4-10.1,2.4s-7.7-.9-11-2.9-6.1-4.7-8.1-8.1-2.9-7.1-2.9-11,.9-7.7,2.9-11,4.7-6,8.1-8,7.1-2.9,11-2.9,6.9.8,10,2.4c3.1,1.6,5.7,3.7,7.7,6.5l-4.8,3.1c-1.6-2-3.5-3.6-5.7-4.8-2.3-1.2-4.7-1.7-7.3-1.7s-5.7.7-8.2,2.1-4.5,3.5-6,6-2.1,5.2-2.1,8.2.7,5.7,2.1,8.2,3.5,4.5,6,6,5.2,2.3,8.2,2.3,5.1-.5,7.3-1.7c2.3-1.2,4.1-2.8,5.7-4.8l4.8,3.1h.1Z"/>
      </g>
      <g class="st2">
        <path class="st1" d="M370.1,60.9h-7.3l-15-19-7.7,8.4v10.5h-5.7V1.9h5.7v40.3l21.4-23.4h7.8l-17.6,19,18.4,23.3h0Z"/>
      </g>
    </g>
    <polyline class="st3" points="20 18.2 20 61.8 1.6 61.8"/>
  </g>
  <g>
    <path class="st0" d="M398.8,41.9h21.3v1.8c0,3.3-.9,6.3-2.7,9.1-1.8,2.8-4.3,5-7.5,6.6-3.2,1.6-6.7,2.5-10.6,2.5s-7.6-1-11-2.9c-3.4-2-6-4.6-8-8-2-3.4-2.9-7-2.9-11s1-7.6,2.9-11c2-3.4,4.6-6,8-8,3.4-2,7-2.9,11-2.9s7.7,1,11.1,3,6,4.7,7.9,8.1l-1.6,1c-1.8-3.1-4.2-5.5-7.3-7.4s-6.4-2.8-10.1-2.8-7,.9-10,2.7c-3.1,1.8-5.5,4.2-7.2,7.2-1.8,3-2.7,6.4-2.7,10s.9,7,2.7,10c1.8,3,4.2,5.5,7.2,7.2,3,1.8,6.4,2.7,10,2.7s6.9-.7,9.7-2.1c2.8-1.4,5.1-3.3,6.7-5.8,1.6-2.5,2.4-5.2,2.4-8.3h-19.4v-1.8Z"/>
    <path class="st0" d="M452.6,18.7h1.9v28.1c0,3-.6,5.6-1.8,7.9-1.2,2.3-2.9,4-5.2,5.3-2.2,1.3-4.9,1.9-8,1.9s-5.7-.6-7.9-1.9c-2.2-1.3-3.9-3-5.1-5.3s-1.8-4.9-1.8-7.9v-28.1h1.9v28.1c0,4,1.1,7.1,3.3,9.5,2.2,2.4,5.4,3.6,9.6,3.6s7.4-1.2,9.7-3.6c2.2-2.4,3.4-5.6,3.4-9.5v-28.1Z"/>
    <path class="st0" d="M461.8,61.1V18.7h1.9v42.4h-1.9Z"/>
    <path class="st0" d="M497.5,21.5c3.3,1.9,5.9,4.4,7.8,7.7,1.9,3.3,2.9,6.9,2.9,10.8s-1,7.5-2.9,10.8c-1.9,3.2-4.5,5.7-7.8,7.6s-6.9,2.8-10.9,2.8h-13.7V18.7h13.7c4,0,7.6.9,10.9,2.8ZM486.6,59.3c3.6,0,7-.8,10-2.5,3-1.7,5.4-4,7.1-7,1.7-2.9,2.6-6.2,2.6-9.8s-.9-6.9-2.6-9.9c-1.7-3-4.1-5.3-7.1-7-3-1.7-6.3-2.5-10-2.5h-11.8v38.8h11.8Z"/>
    <path class="st0" d="M515.6,40.7v18.5h20.7v1.8h-22.7V18.7h22.4v1.8h-20.5v18.4h18.9v1.8h-18.9Z"/>
  </g>
</svg>