<?xml version="1.0" encoding="UTF-8"?>
<svg id="Layer_2" xmlns="http://www.w3.org/2000/svg" version="1.1" viewBox="0 0 407 79.2">
  <!-- Generator: Adobe Illustrator 29.5.1, SVG Export Plug-In . SVG Version: 2.1.0 Build 141)  -->
  <defs>
    <style>
      .st0 {
        fill: #231f20;
      }

      .st1 {
        fill: #aaa;
      }

      .st2 {
        isolation: isolate;
      }

      .st3 {
        fill: #fec15f;
      }

      .st4 {
        fill: #328bcb;
      }

      .st5 {
        fill: #fff;
      }

      .st6 {
        fill: #ec9559;
      }
    </style>
  </defs>
  <rect class="st1" x="285.6" y="28.7" width="110.3" height="31.4"/>
  <g id="Layer_1-2">
    <rect class="st6" x="14.4" y="10.5" width="30.8" height="30.4"/>
    <polygon class="st4" points="45.2 8.7 14.4 8.7 26.3 0 57.1 0 45.2 8.7"/>
    <g class="st2">
      <g class="st2">
        <path class="st0" d="M81.3,15.7h4.6v31.2c0,2.8-.6,5.2-1.8,7.4-1.2,2.1-2.9,3.7-5.1,4.9-2.2,1.1-4.7,1.7-7.6,1.7s-5.9-.7-8.2-2-4.2-3.2-5.5-5.8l3.7-2.2c1.2,2.1,2.6,3.6,4.2,4.4,1.6.9,3.6,1.3,6,1.3s5.3-.8,7.1-2.5c1.8-1.7,2.7-4.1,2.7-7.2V15.7h0Z"/>
      </g>
      <g class="st2">
        <path class="st0" d="M114.8,29.8c2.4,1.5,4.3,3.6,5.6,6.1,1.3,2.6,2,5.3,2,8.3s0,.8,0,1.7h-27.9c.2,2.1.9,3.9,1.9,5.6,1.1,1.7,2.5,3,4.4,3.9,1.8,1,3.9,1.5,6.3,1.5s4.2-.5,6.1-1.5,3.3-2.2,4.2-3.7l3.4,2c-1.4,2.2-3.3,3.9-5.7,5.2-2.4,1.2-5.1,1.9-8.2,1.9s-6.2-.7-8.8-2.2c-2.6-1.4-4.6-3.4-6-6-1.4-2.5-2.2-5.4-2.2-8.5s.7-5.9,2.1-8.4,3.4-4.5,5.9-6,5.4-2.2,8.6-2.2,5.8.8,8.2,2.3h.2ZM118.2,42.3c-.4-3.4-1.7-6-3.7-8-2-1.9-4.7-2.9-8-2.9s-4.4.5-6.3,1.5c-1.9,1-3.3,2.4-4.3,4.1-1,1.7-1.6,3.5-1.6,5.3h23.9Z"/>
      </g>
      <g class="st2">
        <path class="st0" d="M134.1,55.1c.8.8,2,1.2,3.8,1.2s1.7,0,3.4-.3v3.9c-1.8.2-3.2.3-4.3.3-2.8,0-4.9-.7-6.3-2.1-1.4-1.4-2-3.9-2-7.5v-18.5h-7.5v-3.9h7.5v-9.1l4.3-1.6v10.7h8.2v3.9h-8.2v18.3c0,2.2.4,3.7,1.1,4.5v.2Z"/>
      </g>
      <g class="st2">
        <path class="st0" d="M169.9,29.8c2.5,1.5,4.4,3.5,5.7,6,1.4,2.5,2.1,5.3,2.1,8.4s-.7,5.8-2.1,8.4c-1.4,2.5-3.3,4.5-5.7,6-2.5,1.5-5.2,2.2-8.2,2.2s-4.9-.6-7.1-1.8c-2.2-1.2-4.1-2.8-5.5-4.9v18.6h-4.3V28.3h4.3v5.9c1.4-2,3.3-3.6,5.5-4.8,2.2-1.2,4.6-1.8,7.1-1.8s5.8.7,8.2,2.2ZM167.4,54.9c1.9-1.1,3.3-2.6,4.4-4.4,1.1-1.9,1.6-4,1.6-6.3s-.5-4.4-1.6-6.3c-1.1-1.9-2.5-3.4-4.4-4.5s-3.9-1.6-6.2-1.6-4.3.5-6.2,1.6-3.4,2.6-4.4,4.5c-1.1,1.9-1.6,4-1.6,6.3s.5,4.4,1.6,6.3c1.1,1.9,2.6,3.4,4.4,4.4,1.9,1.1,3.9,1.6,6.2,1.6s4.3-.5,6.2-1.6Z"/>
      </g>
      <g class="st2">
        <path class="st0" d="M207.5,28.3h4.3v31.7h-4.3v-5.9c-1.4,2.1-3.3,3.7-5.5,4.9s-4.6,1.8-7.2,1.8-5.8-.7-8.2-2.2c-2.5-1.5-4.4-3.5-5.7-6s-2.1-5.3-2.1-8.4.7-5.9,2.1-8.4c1.4-2.5,3.3-4.5,5.7-6,2.5-1.5,5.2-2.2,8.2-2.2s5,.6,7.2,1.8c2.2,1.2,4,2.8,5.5,4.9,0,0,0-6,0-6ZM201.4,55c1.9-1.1,3.3-2.6,4.4-4.5,1.1-1.9,1.6-4,1.6-6.3s-.5-4.4-1.6-6.3c-1.1-1.9-2.5-3.4-4.4-4.4-1.9-1.1-3.9-1.6-6.2-1.6s-4.3.5-6.2,1.6-3.3,2.6-4.4,4.5c-1.1,1.9-1.6,4-1.6,6.3s.5,4.4,1.6,6.3c1.1,1.9,2.5,3.4,4.4,4.5s3.9,1.7,6.2,1.7,4.3-.5,6.2-1.7h0Z"/>
      </g>
      <g class="st2">
        <path class="st0" d="M244.1,53.9c-1.6,2.2-3.5,3.8-5.8,5.1-2.3,1.2-4.8,1.8-7.6,1.8s-5.8-.7-8.3-2.2-4.6-3.5-6.1-6.1-2.2-5.3-2.2-8.3.7-5.8,2.2-8.3,3.5-4.5,6.1-6,5.3-2.2,8.3-2.2,5.2.6,7.5,1.8c2.3,1.2,4.3,2.8,5.8,4.9l-3.6,2.3c-1.2-1.5-2.6-2.7-4.3-3.6-1.7-.9-3.5-1.3-5.5-1.3s-4.3.5-6.2,1.6-3.4,2.6-4.5,4.5-1.6,3.9-1.6,6.2.5,4.3,1.6,6.2,2.6,3.4,4.5,4.5,3.9,1.7,6.2,1.7,3.8-.4,5.5-1.3c1.7-.9,3.1-2.1,4.3-3.6l3.6,2.3h.1Z"/>
      </g>
      <g class="st2">
        <path class="st0" d="M273.6,60h-5.5l-11.3-14.3-5.8,6.3v7.9h-4.3V15.6h4.3v30.3l16.1-17.6h5.9l-13.2,14.3,13.8,17.5h0Z"/>
      </g>
    </g>
    <polyline class="st3" points="12.4 11.4 12.4 40.9 0 40.9"/>
  </g>
  <g>
    <path class="st5" d="M311.7,45h10.6v.9c0,1.6-.4,3.1-1.3,4.5-.9,1.4-2.1,2.5-3.7,3.3-1.6.8-3.3,1.2-5.3,1.2s-3.8-.5-5.4-1.5c-1.7-1-3-2.3-3.9-3.9-1-1.7-1.5-3.5-1.5-5.4s.5-3.8,1.5-5.4c1-1.7,2.3-3,3.9-3.9,1.7-1,3.5-1.5,5.4-1.5s3.8.5,5.5,1.5,3,2.3,3.9,4l-.8.5c-.9-1.5-2.1-2.7-3.6-3.7s-3.2-1.4-5-1.4-3.5.4-5,1.3c-1.5.9-2.7,2.1-3.6,3.6-.9,1.5-1.3,3.2-1.3,5s.4,3.5,1.3,5c.9,1.5,2.1,2.7,3.6,3.6,1.5.9,3.2,1.3,5,1.3s3.4-.3,4.8-1c1.4-.7,2.5-1.6,3.3-2.9s1.2-2.6,1.2-4.1h-9.6v-.9Z"/>
    <path class="st5" d="M338.3,33.5h1v13.9c0,1.5-.3,2.8-.9,3.9-.6,1.1-1.5,2-2.6,2.6-1.1.6-2.4.9-3.9.9s-2.8-.3-3.9-.9c-1.1-.6-1.9-1.5-2.5-2.6s-.9-2.4-.9-3.9v-13.9h1v13.9c0,2,.5,3.5,1.6,4.7,1.1,1.2,2.7,1.8,4.7,1.8s3.7-.6,4.8-1.8c1.1-1.2,1.7-2.7,1.7-4.7v-13.9Z"/>
    <path class="st5" d="M342.9,54.5v-21h1v21h-1Z"/>
    <path class="st5" d="M360.5,34.9c1.6.9,2.9,2.2,3.9,3.8,1,1.6,1.4,3.4,1.4,5.4s-.5,3.7-1.4,5.3c-1,1.6-2.2,2.8-3.9,3.8s-3.4,1.4-5.4,1.4h-6.8v-21h6.8c2,0,3.8.5,5.4,1.4ZM355.1,53.6c1.8,0,3.4-.4,4.9-1.3,1.5-.8,2.7-2,3.5-3.5.9-1.5,1.3-3.1,1.3-4.9s-.4-3.4-1.3-4.9c-.9-1.5-2-2.6-3.5-3.5-1.5-.8-3.1-1.3-4.9-1.3h-5.8v19.2h5.8Z"/>
    <path class="st5" d="M369.5,44.4v9.2h10.3v.9h-11.2v-21h11.1v.9h-10.1v9.1h9.4v.9h-9.4Z"/>
  </g>
</svg>