<?xml version="1.0" encoding="UTF-8"?>
<svg id="Layer_2" xmlns="http://www.w3.org/2000/svg" version="1.1" viewBox="0 0 420.7 79.2">
  <!-- Generator: Adobe Illustrator 29.5.1, SVG Export Plug-In . SVG Version: 2.1.0 Build 141)  -->
  <defs>
    <style>
      .st0 {
        fill: #231f20;
      }

      .st1 {
        fill: #aaa;
      }

      .st2 {
        isolation: isolate;
      }

      .st3 {
        fill: #fec15f;
      }

      .st4 {
        fill: #328bcb;
      }

      .st5 {
        fill: #fff;
      }

      .st6 {
        fill: #ec9559;
      }
    </style>
  </defs>
  <rect class="st1" x="291.6" y="27.9" width="123.9" height="33"/>
  <g id="Layer_1-2">
    <rect class="st6" x="17.6" y="26.9" width="34.2" height="33.8"/>
    <polygon class="st4" points="51.8 24.9 17.6 24.9 30.9 15.2 65.1 15.2 51.8 24.9"/>
    <g class="st2">
      <g class="st2">
        <path class="st0" d="M86.3,15.7h4.6v31.2c0,2.8-.6,5.2-1.8,7.4-1.2,2.1-2.9,3.7-5.1,4.9-2.2,1.1-4.7,1.7-7.6,1.7s-5.9-.7-8.2-2-4.2-3.2-5.5-5.8l3.7-2.2c1.2,2.1,2.6,3.6,4.2,4.4,1.6.9,3.6,1.3,6,1.3s5.3-.8,7.1-2.5c1.8-1.7,2.7-4.1,2.7-7.2V15.7h0Z"/>
      </g>
      <g class="st2">
        <path class="st0" d="M119.8,29.8c2.4,1.5,4.3,3.6,5.6,6.1,1.3,2.6,2,5.3,2,8.3s0,.8,0,1.7h-27.9c.2,2.1.9,3.9,1.9,5.6,1.1,1.7,2.5,3,4.4,3.9,1.8,1,3.9,1.5,6.3,1.5s4.2-.5,6.1-1.5,3.3-2.2,4.2-3.7l3.4,2c-1.4,2.2-3.3,3.9-5.7,5.2-2.4,1.2-5.1,1.9-8.2,1.9s-6.2-.7-8.8-2.2c-2.6-1.4-4.6-3.4-6-6-1.4-2.5-2.2-5.4-2.2-8.5s.7-5.9,2.1-8.4,3.4-4.5,5.9-6,5.4-2.2,8.6-2.2,5.8.8,8.2,2.3h.2ZM123.2,42.3c-.4-3.4-1.7-6-3.7-8-2-1.9-4.7-2.9-8-2.9s-4.4.5-6.3,1.5c-1.9,1-3.3,2.4-4.3,4.1-1,1.7-1.6,3.5-1.6,5.3h23.9Z"/>
      </g>
      <g class="st2">
        <path class="st0" d="M139.1,55.1c.8.8,2,1.2,3.8,1.2s1.7,0,3.4-.3v3.9c-1.8.2-3.2.3-4.3.3-2.8,0-4.9-.7-6.3-2.1-1.4-1.4-2-3.9-2-7.5v-18.5h-7.5v-3.9h7.5v-9.1l4.3-1.6v10.7h8.2v3.9h-8.2v18.3c0,2.2.4,3.7,1.1,4.5v.2Z"/>
      </g>
      <g class="st2">
        <path class="st0" d="M174.9,29.8c2.5,1.5,4.4,3.5,5.7,6,1.4,2.5,2.1,5.3,2.1,8.4s-.7,5.8-2.1,8.4c-1.4,2.5-3.3,4.5-5.7,6-2.5,1.5-5.2,2.2-8.2,2.2s-4.9-.6-7.1-1.8c-2.2-1.2-4.1-2.8-5.5-4.9v18.6h-4.3V28.3h4.3v5.9c1.4-2,3.3-3.6,5.5-4.8,2.2-1.2,4.6-1.8,7.1-1.8s5.8.7,8.2,2.2ZM172.4,54.9c1.9-1.1,3.3-2.6,4.4-4.4,1.1-1.9,1.6-4,1.6-6.3s-.5-4.4-1.6-6.3c-1.1-1.9-2.5-3.4-4.4-4.5s-3.9-1.6-6.2-1.6-4.3.5-6.2,1.6-3.4,2.6-4.4,4.5c-1.1,1.9-1.6,4-1.6,6.3s.5,4.4,1.6,6.3c1.1,1.9,2.6,3.4,4.4,4.4,1.9,1.1,3.9,1.6,6.2,1.6s4.3-.5,6.2-1.6Z"/>
      </g>
      <g class="st2">
        <path class="st0" d="M212.5,28.3h4.3v31.7h-4.3v-5.9c-1.4,2.1-3.3,3.7-5.5,4.9s-4.6,1.8-7.2,1.8-5.8-.7-8.2-2.2c-2.5-1.5-4.4-3.5-5.7-6s-2.1-5.3-2.1-8.4.7-5.9,2.1-8.4c1.4-2.5,3.3-4.5,5.7-6,2.5-1.5,5.2-2.2,8.2-2.2s5,.6,7.2,1.8c2.2,1.2,4,2.8,5.5,4.9,0,0,0-6,0-6ZM206.4,55c1.9-1.1,3.3-2.6,4.4-4.5,1.1-1.9,1.6-4,1.6-6.3s-.5-4.4-1.6-6.3c-1.1-1.9-2.5-3.4-4.4-4.4-1.9-1.1-3.9-1.6-6.2-1.6s-4.3.5-6.2,1.6-3.3,2.6-4.4,4.5c-1.1,1.9-1.6,4-1.6,6.3s.5,4.4,1.6,6.3c1.1,1.9,2.5,3.4,4.4,4.5s3.9,1.7,6.2,1.7,4.3-.5,6.2-1.7h0Z"/>
      </g>
      <g class="st2">
        <path class="st0" d="M249.1,53.9c-1.6,2.2-3.5,3.8-5.8,5.1-2.3,1.2-4.8,1.8-7.6,1.8s-5.8-.7-8.3-2.2-4.6-3.5-6.1-6.1-2.2-5.3-2.2-8.3.7-5.8,2.2-8.3,3.5-4.5,6.1-6,5.3-2.2,8.3-2.2,5.2.6,7.5,1.8c2.3,1.2,4.3,2.8,5.8,4.9l-3.6,2.3c-1.2-1.5-2.6-2.7-4.3-3.6-1.7-.9-3.5-1.3-5.5-1.3s-4.3.5-6.2,1.6-3.4,2.6-4.5,4.5-1.6,3.9-1.6,6.2.5,4.3,1.6,6.2,2.6,3.4,4.5,4.5,3.9,1.7,6.2,1.7,3.8-.4,5.5-1.3c1.7-.9,3.1-2.1,4.3-3.6l3.6,2.3h.1Z"/>
      </g>
      <g class="st2">
        <path class="st0" d="M278.6,60h-5.5l-11.3-14.3-5.8,6.3v7.9h-4.3V15.6h4.3v30.3l16.1-17.6h5.9l-13.2,14.3,13.8,17.5h0Z"/>
      </g>
    </g>
    <polyline class="st3" points="15.4 27.9 15.4 60.7 1.6 60.7"/>
  </g>
  <g>
    <path class="st5" d="M314,45.8h14.3v1.2c0,2.2-.6,4.2-1.8,6.1-1.2,1.9-2.9,3.3-5,4.4-2.1,1.1-4.5,1.6-7.1,1.6s-5.1-.7-7.4-2c-2.3-1.3-4-3.1-5.4-5.4-1.3-2.3-2-4.7-2-7.4s.7-5.1,2-7.4c1.3-2.3,3.1-4,5.4-5.4,2.3-1.3,4.7-2,7.4-2s5.2.7,7.5,2,4,3.2,5.3,5.5l-1.1.7c-1.2-2.1-2.8-3.7-4.9-5s-4.3-1.9-6.8-1.9-4.7.6-6.7,1.8c-2,1.2-3.7,2.8-4.9,4.9-1.2,2-1.8,4.3-1.8,6.7s.6,4.7,1.8,6.7c1.2,2,2.8,3.7,4.9,4.9,2,1.2,4.3,1.8,6.7,1.8s4.6-.5,6.5-1.4c1.9-.9,3.4-2.2,4.5-3.9s1.6-3.5,1.6-5.6h-13v-1.2Z"/>
    <path class="st5" d="M350.2,30.2h1.3v18.8c0,2-.4,3.8-1.2,5.3-.8,1.5-2,2.7-3.5,3.5-1.5.8-3.3,1.3-5.4,1.3s-3.8-.4-5.3-1.3c-1.5-.8-2.6-2-3.4-3.5s-1.2-3.3-1.2-5.3v-18.8h1.3v18.8c0,2.7.7,4.8,2.2,6.4,1.5,1.6,3.6,2.4,6.4,2.4s5-.8,6.5-2.4c1.5-1.6,2.3-3.7,2.3-6.4v-18.8Z"/>
    <path class="st5" d="M356.3,58.7v-28.5h1.3v28.5h-1.3Z"/>
    <path class="st5" d="M380.3,32.1c2.2,1.2,4,3,5.3,5.1,1.3,2.2,1.9,4.6,1.9,7.3s-.6,5.1-1.9,7.2c-1.3,2.2-3,3.9-5.3,5.1s-4.7,1.9-7.3,1.9h-9.2v-28.5h9.2c2.7,0,5.1.6,7.3,1.9ZM373,57.5c2.4,0,4.7-.6,6.7-1.7,2-1.1,3.6-2.7,4.8-4.7,1.2-2,1.8-4.2,1.8-6.6s-.6-4.7-1.8-6.7c-1.2-2-2.8-3.6-4.8-4.7-2-1.1-4.3-1.7-6.7-1.7h-7.9v26h7.9Z"/>
    <path class="st5" d="M392.5,45v12.5h13.9v1.2h-15.2v-28.5h15.1v1.2h-13.8v12.4h12.7v1.2h-12.7Z"/>
  </g>
</svg>